REM DIRINDEX 1\2,1\3
REM DIRNAME cjc116,folder01,folder02
TITLE ""
FILE "Disc2Track05.mp3" MP3
  TRACK 01 AUDIO
    TITLE "0:"
    INDEX 01 00:00:00
  TRACK 02 AUDIO
    TITLE "3:cjc116_2115"
    INDEX 01 00:00:09
  TRACK 03 AUDIO
    TITLE "0:"
    INDEX 01 00:02:08
  TRACK 04 AUDIO
    TITLE "3:cjc116_2116"
    INDEX 01 00:02:59
  TRACK 05 AUDIO
    TITLE "0:"
    INDEX 01 00:04:27
  TRACK 06 AUDIO
    TITLE "2:cjc116_2117"
    INDEX 01 00:05:07
  TRACK 07 AUDIO
    TITLE "0:"
    INDEX 01 00:07:11
  TRACK 08 AUDIO
    TITLE "2:cjc116_2118"
    INDEX 01 00:07:58
  TRACK 09 AUDIO
    TITLE "0:"
    INDEX 01 00:09:55
  TRACK 10 AUDIO
    TITLE "2:cjc116_2119"
    INDEX 01 00:10:18
  TRACK 11 AUDIO
    TITLE "0:"
    INDEX 01 00:11:74
  TRACK 12 AUDIO
    TITLE "2:cjc116_2120"
    INDEX 01 00:12:38
  TRACK 13 AUDIO
    TITLE "0:"
    INDEX 01 00:14:15
  TRACK 14 AUDIO
    TITLE "2:cjc116_2121"
    INDEX 01 00:14:43
  TRACK 15 AUDIO
    TITLE "0:"
    INDEX 01 00:16:22
  TRACK 16 AUDIO
    TITLE "2:cjc116_2122"
    INDEX 01 00:16:63
  TRACK 17 AUDIO
    TITLE "0:"
    INDEX 01 00:19:15
  TRACK 18 AUDIO
    TITLE "2:cjc116_2123"
    INDEX 01 00:19:46
  TRACK 19 AUDIO
    TITLE "0:"
    INDEX 01 00:20:73
  TRACK 20 AUDIO
    TITLE "2:cjc116_2124"
    INDEX 01 00:21:43
  TRACK 21 AUDIO
    TITLE "0:"
    INDEX 01 00:23:10
  TRACK 22 AUDIO
    TITLE "2:cjc116_2125"
    INDEX 01 00:23:55
  TRACK 23 AUDIO
    TITLE "0:"
    INDEX 01 00:24:72
  TRACK 24 AUDIO
    TITLE "2:cjc116_2126"
    INDEX 01 00:25:46
  TRACK 25 AUDIO
    TITLE "0:"
    INDEX 01 00:26:58
  TRACK 26 AUDIO
    TITLE "2:cjc116_2127"
    INDEX 01 00:27:22
  TRACK 27 AUDIO
    TITLE "0:"
    INDEX 01 00:28:53
  TRACK 28 AUDIO
    TITLE "2:cjc116_2128"
    INDEX 01 00:29:29
  TRACK 29 AUDIO
    TITLE "0:"
    INDEX 01 00:30:57
  TRACK 30 AUDIO
    TITLE "2:cjc116_2129"
    INDEX 01 00:31:22
  TRACK 31 AUDIO
    TITLE "0:"
    INDEX 01 00:32:74
  TRACK 32 AUDIO
    TITLE "2:cjc116_2130"
    INDEX 01 00:33:40
  TRACK 33 AUDIO
    TITLE "0:"
    INDEX 01 00:35:12
  TRACK 34 AUDIO
    TITLE "2:cjc116_2131"
    INDEX 01 00:35:51
  TRACK 35 AUDIO
    TITLE "0:"
    INDEX 01 00:37:01
  TRACK 36 AUDIO
    TITLE "2:cjc116_2132"
    INDEX 01 00:37:44
  TRACK 37 AUDIO
    TITLE "0:"
    INDEX 01 00:38:73
  TRACK 38 AUDIO
    TITLE "2:cjc116_2133"
    INDEX 01 00:39:41
  TRACK 39 AUDIO
    TITLE "0:"
    INDEX 01 00:41:30
  TRACK 40 AUDIO
    TITLE "2:cjc116_2134"
    INDEX 01 00:41:67
  TRACK 41 AUDIO
    TITLE "0:"
    INDEX 01 00:43:56
  TRACK 42 AUDIO
    TITLE "2:cjc116_2135"
    INDEX 01 00:44:14
  TRACK 43 AUDIO
    TITLE "0:"
    INDEX 01 00:46:02
  TRACK 44 AUDIO
    TITLE "2:cjc116_2136"
    INDEX 01 00:46:45
  TRACK 45 AUDIO
    TITLE "0:"
    INDEX 01 00:48:24
  TRACK 46 AUDIO
    TITLE "2:cjc116_2137"
    INDEX 01 00:48:63
  TRACK 47 AUDIO
    TITLE "0:"
    INDEX 01 00:50:11
  TRACK 48 AUDIO
    TITLE "2:cjc116_2138"
    INDEX 01 00:50:52
  TRACK 49 AUDIO
    TITLE "0:"
    INDEX 01 00:51:63
  TRACK 50 AUDIO
    TITLE "2:cjc116_2139"
    INDEX 01 00:52:28
  TRACK 51 AUDIO
    TITLE "0:"
    INDEX 01 00:53:74
  TRACK 52 AUDIO
    TITLE "2:cjc116_2140"
    INDEX 01 00:54:42
  TRACK 53 AUDIO
    TITLE "0:"
    INDEX 01 00:56:16
  TRACK 54 AUDIO
    TITLE "2:cjc116_2141"
    INDEX 01 00:56:53
  TRACK 55 AUDIO
    TITLE "0:"
    INDEX 01 00:59:28
  TRACK 56 AUDIO
    TITLE "2:cjc116_2142"
    INDEX 01 00:59:69
  TRACK 57 AUDIO
    TITLE "0:"
    INDEX 01 01:01:58
  TRACK 58 AUDIO
    TITLE "2:cjc116_2143"
    INDEX 01 01:02:20
  TRACK 59 AUDIO
    TITLE "0:"
    INDEX 01 01:04:15
  TRACK 60 AUDIO
    TITLE "2:cjc116_2144"
    INDEX 01 01:04:58
  TRACK 61 AUDIO
    TITLE "0:"
    INDEX 01 01:06:20
  TRACK 62 AUDIO
    TITLE "2:cjc116_2145"
    INDEX 01 01:06:57
  TRACK 63 AUDIO
    TITLE "0:"
    INDEX 01 01:08:46
  TRACK 64 AUDIO
    TITLE "2:cjc116_2146"
    INDEX 01 01:09:16
  TRACK 65 AUDIO
    TITLE "0:"
    INDEX 01 01:11:21
  TRACK 66 AUDIO
    TITLE "2:cjc116_2147"
    INDEX 01 01:11:56
  TRACK 67 AUDIO
    TITLE "0:"
    INDEX 01 01:13:24
  TRACK 68 AUDIO
    TITLE "2:cjc116_2148"
    INDEX 01 01:13:63
  TRACK 69 AUDIO
    TITLE "0:"
    INDEX 01 01:15:29
  TRACK 70 AUDIO
    TITLE "2:cjc116_2149"
    INDEX 01 01:15:66
  TRACK 71 AUDIO
    TITLE "0:"
    INDEX 01 01:17:51
  TRACK 72 AUDIO
    TITLE "2:cjc116_2150"
    INDEX 01 01:18:13
  TRACK 73 AUDIO
    TITLE "0:"
    INDEX 01 01:20:06
  TRACK 74 AUDIO
    TITLE "2:cjc116_2151"
    INDEX 01 01:20:36
  TRACK 75 AUDIO
    TITLE "0:"
    INDEX 01 01:22:29
  TRACK 76 AUDIO
    TITLE "2:cjc116_2152"
    INDEX 01 01:23:07
  TRACK 77 AUDIO
    TITLE "0:"
    INDEX 01 01:25:17
  TRACK 78 AUDIO
    TITLE "2:cjc116_2153"
    INDEX 01 01:25:55
  TRACK 79 AUDIO
    TITLE "0:"
    INDEX 01 01:27:38
  TRACK 80 AUDIO
    TITLE "2:cjc116_2154"
    INDEX 01 01:28:08
  TRACK 81 AUDIO
    TITLE "0:"
    INDEX 01 01:29:41
  TRACK 82 AUDIO
    TITLE "2:cjc116_2155"
    INDEX 01 01:30:03
  TRACK 83 AUDIO
    TITLE "0:"
    INDEX 01 01:32:02
  TRACK 84 AUDIO
    TITLE "2:cjc116_2156"
    INDEX 01 01:32:45
  TRACK 85 AUDIO
    TITLE "0:"
    INDEX 01 01:34:30
  TRACK 86 AUDIO
    TITLE "2:cjc116_2157"
    INDEX 01 01:34:61
  TRACK 87 AUDIO
    TITLE "0:"
    INDEX 01 01:37:13
  TRACK 88 AUDIO
    TITLE "2:cjc116_2158"
    INDEX 01 01:37:56
  TRACK 89 AUDIO
    TITLE "0:"
    INDEX 01 01:39:51
  TRACK 90 AUDIO
    TITLE "2:cjc116_2159"
    INDEX 01 01:40:19
  TRACK 91 AUDIO
    TITLE "0:"
    INDEX 01 01:41:40
  TRACK 92 AUDIO
    TITLE "2:cjc116_2160"
    INDEX 01 01:42:04
  TRACK 93 AUDIO
    TITLE "0:"
    INDEX 01 01:43:35
  TRACK 94 AUDIO
    TITLE "2:cjc116_2161"
    INDEX 01 01:43:74
  TRACK 95 AUDIO
    TITLE "0:"
    INDEX 01 01:45:38
  TRACK 96 AUDIO
    TITLE "2:cjc116_2162"
    INDEX 01 01:46:08
  TRACK 97 AUDIO
    TITLE "0:"
    INDEX 01 01:47:54
  TRACK 98 AUDIO
    TITLE "2:cjc116_2163"
    INDEX 01 01:48:16
  TRACK 99 AUDIO
    TITLE "0:"
    INDEX 01 01:50:56
  TRACK 100 AUDIO
    TITLE "2:cjc116_2164"
    INDEX 01 01:51:15
  TRACK 101 AUDIO
    TITLE "0:"
    INDEX 01 01:53:47
  TRACK 102 AUDIO
    TITLE "2:cjc116_2165"
    INDEX 01 01:54:07
  TRACK 103 AUDIO
    TITLE "0:"
    INDEX 01 01:56:65
  TRACK 104 AUDIO
    TITLE "2:cjc116_2166"
    INDEX 01 01:57:25
  TRACK 105 AUDIO
    TITLE "0:"
    INDEX 01 02:01:17
  TRACK 106 AUDIO
    TITLE "2:cjc116_2167"
    INDEX 01 02:01:60
  TRACK 107 AUDIO
    TITLE "0:"
    INDEX 01 02:03:30
  TRACK 108 AUDIO
    TITLE "2:cjc116_2168"
    INDEX 01 02:03:73
  TRACK 109 AUDIO
    TITLE "0:"
    INDEX 01 02:05:11
  TRACK 110 AUDIO
    TITLE "2:cjc116_2169"
    INDEX 01 02:05:50
  TRACK 111 AUDIO
    TITLE "0:"
    INDEX 01 02:06:61
  TRACK 112 AUDIO
    TITLE "2:cjc116_2170"
    INDEX 01 02:07:31
  TRACK 113 AUDIO
    TITLE "0:"
    INDEX 01 02:10:30
  TRACK 114 AUDIO
    TITLE "2:cjc116_2171"
    INDEX 01 02:10:65
  TRACK 115 AUDIO
    TITLE "0:"
    INDEX 01 02:12:40
  TRACK 116 AUDIO
    TITLE "2:cjc116_2172"
    INDEX 01 02:13:05
  TRACK 117 AUDIO
    TITLE "0:"
    INDEX 01 02:14:69
  TRACK 118 AUDIO
    TITLE "2:cjc116_2173"
    INDEX 01 02:15:35
  TRACK 119 AUDIO
    TITLE "0:"
    INDEX 01 02:16:42
  TRACK 120 AUDIO
    TITLE "2:cjc116_2174"
    INDEX 01 02:17:10
  TRACK 121 AUDIO
    TITLE "0:"
    INDEX 01 02:19:09
  TRACK 122 AUDIO
    TITLE "2:cjc116_2175"
    INDEX 01 02:19:39
  TRACK 123 AUDIO
    TITLE "0:"
    INDEX 01 02:21:20
  TRACK 124 AUDIO
    TITLE "2:cjc116_2176"
    INDEX 01 02:21:63
  TRACK 125 AUDIO
    TITLE "0:"
    INDEX 01 02:23:46
  TRACK 126 AUDIO
    TITLE "2:cjc116_2177"
    INDEX 01 02:24:08
  TRACK 127 AUDIO
    TITLE "0:"
    INDEX 01 02:25:70
  TRACK 128 AUDIO
    TITLE "2:cjc116_2178"
    INDEX 01 02:26:44
  TRACK 129 AUDIO
    TITLE "0:"
    INDEX 01 02:28:37
  TRACK 130 AUDIO
    TITLE "2:cjc116_2179"
    INDEX 01 02:29:04
  TRACK 131 AUDIO
    TITLE "0:"
    INDEX 01 02:30:60
  TRACK 132 AUDIO
    TITLE "2:cjc116_2180"
    INDEX 01 02:31:30
  TRACK 133 AUDIO
    TITLE "0:"
    INDEX 01 02:33:29
  TRACK 134 AUDIO
    TITLE "2:cjc116_2181"
    INDEX 01 02:33:62
  TRACK 135 AUDIO
    TITLE "0:"
    INDEX 01 02:35:22
  TRACK 136 AUDIO
    TITLE "2:cjc116_2182"
    INDEX 01 02:35:65
  TRACK 137 AUDIO
    TITLE "0:"
    INDEX 01 02:38:14
  TRACK 138 AUDIO
    TITLE "2:cjc116_2183"
    INDEX 01 02:38:50
  TRACK 139 AUDIO
    TITLE "0:"
    INDEX 01 02:40:09
  TRACK 140 AUDIO
    TITLE "2:cjc116_2184"
    INDEX 01 02:40:45
  TRACK 141 AUDIO
    TITLE "0:"
    INDEX 01 02:42:06
  TRACK 142 AUDIO
    TITLE "3:cjc116_2185"
    INDEX 01 02:43:61
  TRACK 143 AUDIO
    TITLE "0:"
    INDEX 01 02:45:22
  TRACK 144 AUDIO
    TITLE "2:cjc116_2186"
    INDEX 01 02:46:00
  TRACK 145 AUDIO
    TITLE "0:"
    INDEX 01 02:47:29
  TRACK 146 AUDIO
    TITLE "2:cjc116_2187"
    INDEX 01 02:47:66
  TRACK 147 AUDIO
    TITLE "0:"
    INDEX 01 02:49:22
  TRACK 148 AUDIO
    TITLE "2:cjc116_2188"
    INDEX 01 02:49:49
  TRACK 149 AUDIO
    TITLE "0:"
    INDEX 01 02:51:03
  TRACK 150 AUDIO
    TITLE "2:cjc116_2189"
    INDEX 01 02:51:50
  TRACK 151 AUDIO
    TITLE "0:"
    INDEX 01 02:53:00
  TRACK 152 AUDIO
    TITLE "2:cjc116_2190"
    INDEX 01 02:53:39
  TRACK 153 AUDIO
    TITLE "0:"
    INDEX 01 02:55:28
  TRACK 154 AUDIO
    TITLE "2:cjc116_2191"
    INDEX 01 02:55:74
  TRACK 155 AUDIO
    TITLE "0:"
    INDEX 01 02:57:59
  TRACK 156 AUDIO
    TITLE "2:cjc116_2192"
    INDEX 01 02:58:21
  TRACK 157 AUDIO
    TITLE "0:"
    INDEX 01 02:59:46
  TRACK 158 AUDIO
    TITLE "2:cjc116_2193"
    INDEX 01 03:00:12
  TRACK 159 AUDIO
    TITLE "0:"
    INDEX 01 03:04:71
  TRACK 160 AUDIO
    TITLE "2:cjc116_2194"
    INDEX 01 03:05:33
  TRACK 161 AUDIO
    TITLE "0:"
    INDEX 01 03:07:06
  TRACK 162 AUDIO
    TITLE "2:cjc116_2195"
    INDEX 01 03:07:51
  TRACK 163 AUDIO
    TITLE "0:"
    INDEX 01 03:09:13
  TRACK 164 AUDIO
    TITLE "2:cjc116_2196"
    INDEX 01 03:09:50
  TRACK 165 AUDIO
    TITLE "0:"
    INDEX 01 03:11:26
  TRACK 166 AUDIO
    TITLE "2:cjc116_2197"
    INDEX 01 03:11:65
  TRACK 167 AUDIO
    TITLE "0:"
    INDEX 01 03:13:13
  TRACK 168 AUDIO
    TITLE "2:cjc116_2198"
    INDEX 01 03:13:50
  TRACK 169 AUDIO
    TITLE "0:"
    INDEX 01 03:15:35
  TRACK 170 AUDIO
    TITLE "2:cjc116_2199"
    INDEX 01 03:16:05
  TRACK 171 AUDIO
    TITLE "0:"
    INDEX 01 03:17:48
  TRACK 172 AUDIO
    TITLE "2:cjc116_2200"
    INDEX 01 03:18:12
  TRACK 173 AUDIO
    TITLE "0:"
    INDEX 01 03:20:03
  TRACK 174 AUDIO
    TITLE "2:cjc116_2201"
    INDEX 01 03:20:52
  TRACK 175 AUDIO
    TITLE "0:"
    INDEX 01 03:22:04
  TRACK 176 AUDIO
    TITLE "2:cjc116_2202"
    INDEX 01 03:22:41
  TRACK 177 AUDIO
    TITLE "0:"
    INDEX 01 03:24:03
  TRACK 178 AUDIO
    TITLE "2:cjc116_2203"
    INDEX 01 03:24:44
  TRACK 179 AUDIO
    TITLE "0:"
    INDEX 01 03:26:21
  TRACK 180 AUDIO
    TITLE "2:cjc116_2204"
    INDEX 01 03:26:58
  TRACK 181 AUDIO
    TITLE "0:"
    INDEX 01 03:28:00
  TRACK 182 AUDIO
    TITLE "2:cjc116_2205"
    INDEX 01 03:28:42
  TRACK 183 AUDIO
    TITLE "0:"
    INDEX 01 03:29:45
  TRACK 184 AUDIO
    TITLE "2:cjc116_2206"
    INDEX 01 03:30:03
  TRACK 185 AUDIO
    TITLE "0:"
    INDEX 01 03:33:25
  TRACK 186 AUDIO
    TITLE "2:cjc116_2207"
    INDEX 01 03:34:05
  TRACK 187 AUDIO
    TITLE "0:"
    INDEX 01 03:35:67
  TRACK 188 AUDIO
    TITLE "2:cjc116_2208"
    INDEX 01 03:36:29
  TRACK 189 AUDIO
    TITLE "0:"
    INDEX 01 03:38:09
  TRACK 190 AUDIO
    TITLE "2:cjc116_2209"
    INDEX 01 03:38:54
  TRACK 191 AUDIO
    TITLE "0:"
    INDEX 01 03:40:08
  TRACK 192 AUDIO
    TITLE "2:cjc116_2210"
    INDEX 01 03:40:45
  TRACK 193 AUDIO
    TITLE "0:"
    INDEX 01 03:42:34
  TRACK 194 AUDIO
    TITLE "2:cjc116_2211"
    INDEX 01 03:43:06
  TRACK 195 AUDIO
    TITLE "0:"
    INDEX 01 03:44:58
  TRACK 196 AUDIO
    TITLE "2:cjc116_2212"
    INDEX 01 03:45:21
  TRACK 197 AUDIO
    TITLE "0:"
    INDEX 01 03:47:06
  TRACK 198 AUDIO
    TITLE "2:cjc116_2213"
    INDEX 01 03:47:45
  TRACK 199 AUDIO
    TITLE "0:"
    INDEX 01 03:49:20
  TRACK 200 AUDIO
    TITLE "2:cjc116_2214"
    INDEX 01 03:49:56
  TRACK 201 AUDIO
    TITLE "0:"
    INDEX 01 03:51:21
  TRACK 202 AUDIO
    TITLE "2:cjc116_2215"
    INDEX 01 03:51:62
  TRACK 203 AUDIO
    TITLE "0:"
    INDEX 01 03:53:34
  TRACK 204 AUDIO
    TITLE "2:cjc116_2216"
    INDEX 01 03:53:73
  TRACK 205 AUDIO
    TITLE "0:"
    INDEX 01 03:55:27
  TRACK 206 AUDIO
    TITLE "2:cjc116_2217"
    INDEX 01 03:55:68
  TRACK 207 AUDIO
    TITLE "0:"
    INDEX 01 03:57:35
  TRACK 208 AUDIO
    TITLE "2:cjc116_2218"
    INDEX 01 03:58:00
  TRACK 209 AUDIO
    TITLE "0:"
    INDEX 01 03:59:60
  TRACK 210 AUDIO
    TITLE "2:cjc116_2219"
    INDEX 01 04:00:24
  TRACK 211 AUDIO
    TITLE "0:"
    INDEX 01 04:01:51
  TRACK 212 AUDIO
    TITLE "2:cjc116_2220"
    INDEX 01 04:02:23
  TRACK 213 AUDIO
    TITLE "0:"
    INDEX 01 04:03:69
  TRACK 214 AUDIO
    TITLE "2:cjc116_2221"
    INDEX 01 04:04:39
  TRACK 215 AUDIO
    TITLE "0:"
    INDEX 01 04:06:13
  TRACK 216 AUDIO
    TITLE "2:cjc116_2222"
    INDEX 01 04:06:48
  TRACK 217 AUDIO
    TITLE "0:"
    INDEX 01 04:08:29
  TRACK 218 AUDIO
    TITLE "2:cjc116_2223"
    INDEX 01 04:08:69
  TRACK 219 AUDIO
    TITLE "0:"
    INDEX 01 04:10:60
  TRACK 220 AUDIO
    TITLE "2:cjc116_2224"
    INDEX 01 04:11:26
  TRACK 221 AUDIO
    TITLE "0:"
    INDEX 01 04:13:03
  TRACK 222 AUDIO
    TITLE "2:cjc116_2225"
    INDEX 01 04:13:40
  TRACK 223 AUDIO
    TITLE "0:"
    INDEX 01 04:14:44
  TRACK 224 AUDIO
    TITLE "2:cjc116_2226"
    INDEX 01 04:15:06
  TRACK 225 AUDIO
    TITLE "0:"
    INDEX 01 04:16:66
  TRACK 226 AUDIO
    TITLE "2:cjc116_2227"
    INDEX 01 04:17:30
  TRACK 227 AUDIO
    TITLE "0:"
    INDEX 01 04:19:25
  TRACK 228 AUDIO
    TITLE "2:cjc116_2228"
    INDEX 01 04:19:64
  TRACK 229 AUDIO
    TITLE "0:"
    INDEX 01 04:21:38
  TRACK 230 AUDIO
    TITLE "2:cjc116_2229"
    INDEX 01 04:22:02
  TRACK 231 AUDIO
    TITLE "0:"
    INDEX 01 04:23:33
  TRACK 232 AUDIO
    TITLE "2:cjc116_2230"
    INDEX 01 04:23:74
  TRACK 233 AUDIO
    TITLE "0:"
    INDEX 01 04:25:44
  TRACK 234 AUDIO
    TITLE "2:cjc116_2231"
    INDEX 01 04:26:10
  TRACK 235 AUDIO
    TITLE "0:"
    INDEX 01 04:27:44
  TRACK 236 AUDIO
    TITLE "2:cjc116_2232"
    INDEX 01 04:28:07
  TRACK 237 AUDIO
    TITLE "0:"
    INDEX 01 04:29:67
  TRACK 238 AUDIO
    TITLE "2:cjc116_2233"
    INDEX 01 04:30:39
  TRACK 239 AUDIO
    TITLE "0:"
    INDEX 01 04:31:56
  TRACK 240 AUDIO
    TITLE "2:cjc116_2234"
    INDEX 01 04:32:18
  TRACK 241 AUDIO
    TITLE "0:"
    INDEX 01 04:33:65
  TRACK 242 AUDIO
    TITLE "2:cjc116_2235"
    INDEX 01 04:34:29
  TRACK 243 AUDIO
    TITLE "0:"
    INDEX 01 04:35:71
  TRACK 244 AUDIO
    TITLE "2:cjc116_2236"
    INDEX 01 04:36:34
  TRACK 245 AUDIO
    TITLE "0:"
    INDEX 01 04:38:15
  TRACK 246 AUDIO
    TITLE "2:cjc116_2237"
    INDEX 01 04:38:54
  TRACK 247 AUDIO
    TITLE "0:"
    INDEX 01 04:39:71
  TRACK 248 AUDIO
    TITLE "2:cjc116_2238"
    INDEX 01 04:40:39
  TRACK 249 AUDIO
    TITLE "0:"
    INDEX 01 04:42:09
  TRACK 250 AUDIO
    TITLE "2:cjc116_2239"
    INDEX 01 04:42:48
  TRACK 251 AUDIO
    TITLE "0:"
    INDEX 01 04:43:61
  TRACK 252 AUDIO
    TITLE "2:cjc116_2240"
    INDEX 01 04:44:25
  TRACK 253 AUDIO
    TITLE "0:"
    INDEX 01 04:46:26
  TRACK 254 AUDIO
    TITLE "2:cjc116_2241"
    INDEX 01 04:46:71
  TRACK 255 AUDIO
    TITLE "0:"
    INDEX 01 04:48:72
  TRACK 256 AUDIO
    TITLE "2:cjc116_2242"
    INDEX 01 04:49:36
  TRACK 257 AUDIO
    TITLE "0:"
    INDEX 01 04:51:06
  TRACK 258 AUDIO
    TITLE "2:cjc116_2243"
    INDEX 01 04:51:51
  TRACK 259 AUDIO
    TITLE "0:"
    INDEX 01 04:53:16
  TRACK 260 AUDIO
    TITLE "2:cjc116_2244"
    INDEX 01 04:53:59
  TRACK 261 AUDIO
    TITLE "0:"
    INDEX 01 04:54:69
  TRACK 262 AUDIO
    TITLE "2:cjc116_2245"
    INDEX 01 04:55:35
  TRACK 263 AUDIO
    TITLE "0:"
    INDEX 01 04:58:19
  TRACK 264 AUDIO
    TITLE "2:cjc116_2246"
    INDEX 01 04:58:49
  TRACK 265 AUDIO
    TITLE "0:"
    INDEX 01 05:00:32
  TRACK 266 AUDIO
    TITLE "2:cjc116_2247"
    INDEX 01 05:00:73
  TRACK 267 AUDIO
    TITLE "0:"
    INDEX 01 05:02:37
  TRACK 268 AUDIO
    TITLE "2:cjc116_2248"
    INDEX 01 05:03:01
  TRACK 269 AUDIO
    TITLE "0:"
    INDEX 01 05:04:48
  TRACK 270 AUDIO
    TITLE "2:cjc116_2249"
    INDEX 01 05:05:14
  TRACK 271 AUDIO
    TITLE "0:"
    INDEX 01 05:06:37
  TRACK 272 AUDIO
    TITLE "2:cjc116_2250"
    INDEX 01 05:07:05
  TRACK 273 AUDIO
    TITLE "0:"
    INDEX 01 05:08:24
  TRACK 274 AUDIO
    TITLE "2:cjc116_2251"
    INDEX 01 05:09:06
  TRACK 275 AUDIO
    TITLE "0:"
    INDEX 01 05:10:56
  TRACK 276 AUDIO
    TITLE "2:cjc116_2252"
    INDEX 01 05:11:18
  TRACK 277 AUDIO
    TITLE "0:"
    INDEX 01 05:12:63
  TRACK 278 AUDIO
    TITLE "2:cjc116_2253"
    INDEX 01 05:13:17
  TRACK 279 AUDIO
    TITLE "0:"
    INDEX 01 05:15:02
